<svg width="77" height="52" viewBox="0 0 77 52" fill="none" xmlns="http://www.w3.org/2000/svg">
<path d="M37.5346 0.493887C36.3651 0.688808 35.1225 1.3954 34.4098 2.27863C33.7032 3.14969 33.3743 4.09384 33.3743 5.239C33.3743 7.13339 34.3793 8.74758 36.091 9.60036C36.9133 10.0085 37.4493 10.1303 38.4361 10.1303C39.9102 10.1364 41.0615 9.71001 42.0361 8.79022C42.7488 8.11409 43.1812 7.4075 43.4371 6.48162C43.6198 5.84813 43.632 4.6786 43.4675 4.08775C42.8584 1.86443 40.83 0.402517 38.4057 0.432974C38.1072 0.439065 37.7113 0.46343 37.5346 0.493887ZM39.3803 1.23093C40.5133 1.46849 41.4574 2.4431 41.8168 3.74664C41.9447 4.22785 42.0056 5.56793 41.9143 6.13442C41.5853 8.22982 40.3366 9.44199 38.497 9.44199C36.5174 9.4359 35.2504 8.12627 35.0128 5.83595C34.6778 2.66848 36.5966 0.646169 39.3803 1.23093Z" fill="#EC9E0A"/>
<path d="M27.5935 9.48427C27.5935 9.61218 27.624 9.98984 27.6544 10.3249C28.0077 13.9614 30.2432 17.2446 33.5142 18.944C35.2259 19.8334 37.37 20.2658 39.2583 20.1014C42.9131 19.7907 46.0257 17.8537 47.8592 14.7471C48.7486 13.2487 49.3394 11.1898 49.3394 9.57563V9.25889H46.6044H43.8755L43.839 9.84974C43.7902 10.6294 43.6745 11.0375 43.2969 11.8172C43.0227 12.3715 42.907 12.5299 42.4258 13.0111C41.3111 14.138 39.8431 14.6862 38.1923 14.5949C35.3416 14.4426 33.2889 12.5116 33.0939 9.78883L33.0574 9.25889H30.3285H27.5935V9.48427Z" fill="#EC9E0A"/>
<path d="M37.1266 10.8851L37.7966 11.5552H38.4667H39.1367L39.8068 10.8851L40.4768 10.2151H40.1722C39.9347 10.2151 39.7154 10.2882 39.2037 10.5197C38.8382 10.6902 38.5093 10.8242 38.4667 10.8242C38.424 10.8242 38.0951 10.6902 37.7296 10.5197C37.218 10.2882 36.9987 10.2151 36.7611 10.2151H36.4565L37.1266 10.8851Z" fill="#EC9E0A"/>
<path d="M11.5735 27.9962C11.4882 28.0084 11.2323 28.051 10.9948 28.0876C9.57551 28.3191 8.24152 29.2449 7.65675 30.4084C7.49229 30.7312 0 51.0274 0 51.1492C0 51.1614 1.28526 51.1675 2.85072 51.1675H5.70145L6.02429 50.2051C6.20702 49.6812 6.54814 48.6944 6.77961 48.0122L7.1999 46.7818H12.0242H16.8485L17.5612 48.9746L18.28 51.1675H21.2342C24.0301 51.1675 24.1946 51.1614 24.152 51.0578C24.1337 51.003 22.4525 46.4467 20.4302 40.9341C18.4079 35.4215 16.6353 30.6825 16.4952 30.3962C16.1358 29.6591 15.411 28.9343 14.6739 28.5749C13.9856 28.246 13.1572 28.0389 12.3592 28.0023C12.012 27.984 11.6587 27.9779 11.5735 27.9962ZM12.408 32.9545C12.4932 33.0398 15.1429 41.1595 15.3988 42.1036C15.4231 42.2072 15.2343 42.2133 12.0364 42.2133C10.1298 42.2133 8.64963 42.1889 8.64963 42.1585C8.64963 42.128 9.35013 40.057 10.2029 37.5474C11.1653 34.7149 11.7927 32.9545 11.8597 32.9119C12.012 32.7962 12.2861 32.8144 12.408 32.9545Z" fill="#004AAD"/>
<path d="M50.7587 28.0203C47.4268 28.398 45.0086 30.6213 44.4969 33.7644C44.4177 34.2396 44.4055 35.5857 44.4055 42.743V51.1672H47.0857H49.7659L49.778 42.6212L49.7963 34.0812L49.9364 33.801C50.1131 33.4416 50.4481 33.1066 50.8318 32.9056C51.2339 32.6985 51.91 32.6802 52.3242 32.8751C52.7323 33.0639 53.0856 33.405 53.2805 33.7949L53.4511 34.1421L53.4876 39.9288C53.5242 46.1846 53.5059 45.9044 53.8531 46.9643C54.8277 49.9246 58.0074 51.8556 61.3759 51.5327C63.2702 51.3561 64.7078 50.686 65.9687 49.4008C66.9128 48.4383 67.455 47.415 67.7473 46.0567C67.8692 45.4963 67.8753 45.2404 67.8996 39.7826C67.9301 33.3015 67.8813 33.8436 68.4722 33.2893C68.8925 32.8934 69.2458 32.7472 69.7757 32.7472C70.1229 32.7472 70.2752 32.7776 70.5493 32.9116C70.9453 33.1066 71.2864 33.4538 71.4752 33.8619L71.6031 34.1421L71.6214 42.6516L71.6397 51.1672H74.3198H77L76.9756 42.5907C76.9574 34.1665 76.9574 34.0081 76.8295 33.472C76.531 32.1868 75.9949 31.1513 75.1483 30.2437C74.131 29.1533 72.8762 28.4467 71.3899 28.1361C70.5615 27.9655 69.1179 27.9472 68.3443 28.0995C65.7494 28.6051 63.7027 30.3229 62.9291 32.6375C62.588 33.6487 62.6002 33.3868 62.5637 39.6547L62.5271 45.4719L62.387 45.7338C62.1982 46.0871 61.851 46.4282 61.4855 46.6049C61.2418 46.7267 61.0957 46.7511 60.6693 46.7511C60.2124 46.7511 60.115 46.7328 59.8287 46.5744C59.4632 46.3734 59.2134 46.1115 59.0124 45.7277L58.8723 45.4719L58.8358 39.6547C58.7992 33.3868 58.8114 33.6548 58.4764 32.6375C57.7089 30.3411 55.6439 28.5929 53.1343 28.1178C52.5313 28.0021 51.3252 27.9533 50.7587 28.0203Z" fill="#004AAD"/>
<path d="M26.4971 30.7249V33.07L30.1397 33.0883L33.7762 33.1066L34.1843 33.3015C34.9701 33.6731 35.4452 34.2761 35.5792 35.068C35.7071 35.8598 35.4513 36.737 34.897 37.3644C34.7386 37.541 33.2523 38.6436 30.9194 40.3065C28.428 42.0851 27.0636 43.0963 26.8017 43.3704C25.7783 44.3998 25.2301 45.8861 25.3946 47.1896C25.626 49.0353 26.8199 50.4363 28.629 50.9967L29.0859 51.1368L35.2564 51.1551L41.4207 51.1733V48.8221V46.477H36.365H31.3092L31.2057 46.3186C31.1143 46.1724 31.1143 46.1419 31.1935 45.9957C31.2483 45.8983 32.5275 45.0029 34.6472 43.5775C36.499 42.3349 38.2411 41.1288 38.5152 40.8912C40.0076 39.6303 40.7629 38.0162 40.8543 35.9086C40.9152 34.4954 40.7081 33.4599 40.1416 32.3025C39.1974 30.3777 37.5528 29.1107 35.2685 28.5503C34.7751 28.4285 34.562 28.4224 30.627 28.4041L26.4971 28.3797V30.7249Z" fill="#004AAD"/>
</svg>
